<?xml version="1.0" encoding="iso-8859-1"?>
<!-- Generator: Adobe Illustrator 19.0.0, SVG Export Plug-In . SVG Version: 6.00 Build 0)  -->
<svg version="1.1" id="Layer_1" xmlns="http://www.w3.org/2000/svg" xmlns:xlink="http://www.w3.org/1999/xlink" x="0px" y="0px"
	 viewBox="0 0 512.175 512.175" style="enable-background:new 0 0 512.175 512.175;" xml:space="preserve">
<g>
	<g>
		<g>
			<path d="M42.841,218.911c4.719,0,8.533-3.814,8.533-8.533s-3.814-8.533-8.533-8.533s-8.533,3.814-8.533,8.533
				S38.122,218.911,42.841,218.911z"/>
			<path d="M59.908,244.511c4.719,0,8.533-3.814,8.533-8.533s-3.814-8.533-8.533-8.533s-8.533,3.814-8.533,8.533
				S55.189,244.511,59.908,244.511z"/>
			<path d="M76.974,270.112c4.719,0,8.533-3.814,8.533-8.533s-3.814-8.533-8.533-8.533s-8.533,3.814-8.533,8.533
				S72.256,270.112,76.974,270.112z"/>
			<path d="M42.841,270.112c4.719,0,8.533-3.814,8.533-8.533s-3.814-8.533-8.533-8.533s-8.533,3.814-8.533,8.533
				S38.122,270.112,42.841,270.112z"/>
			<path d="M59.908,278.645c-4.719,0-8.533,3.814-8.533,8.533s3.814,8.533,8.533,8.533s8.533-3.814,8.533-8.533
				S64.627,278.645,59.908,278.645z"/>
			<path d="M51.375,312.778c0-4.719-3.814-8.533-8.533-8.533s-8.533,3.814-8.533,8.533s3.814,8.533,8.533,8.533
				S51.375,317.497,51.375,312.778z"/>
			<path d="M512.175,329.845c0-22.724-12.809-41.156-34.253-49.306l-4.173-1.596c-14.302-5.436-29.073-11.051-43.085-17.485
				c-42.615-19.61-47.147-20.514-48.452-20.736c-2.827-1.018-13.002-6.766-26.919-14.997l0.517-0.517
				c3.328-3.328,3.328-8.73,0-12.066c-3.336-3.328-8.738-3.328-12.066,0l-3.56,3.56c-7.001-4.214-14.484-8.757-22.155-13.446
				l1.642-1.642c3.337-3.337,3.337-8.738,0-12.066c-3.328-3.337-8.73-3.337-12.066,0l-4.53,4.53
				c-5.616-3.461-11.225-6.932-16.72-10.347l1.453-1.453c3.336-3.337,3.336-8.73,0-12.066c-3.337-3.337-8.73-3.337-12.066,0
				l-4.246,4.246c-22.415-14.048-40.699-25.802-45.725-29.573c-19.9-14.916-50.799,6.255-54.793,9.139
				c-4.088,3.428-8.011,6.586-11.781,9.502c-0.407,0.26-0.793,0.556-1.155,0.888c-42.32,32.445-64.671,33.561-74.624,30.979
				c-9.114-2.364-12.732-8.866-13.585-10.667c-2.074-12.416-6.349-28.612-18.944-31.565c-12.228-2.893-21.734,9.805-23.151,11.827
				c-45.346,75.262-23.889,138.278-13.343,160.705c-3.481,3.126-5.687,7.646-5.687,12.684v17.058
				c0,9.412,7.654,17.067,17.067,17.067l432.947-0.008c0.196,0.008,1.161,0.068,2.722,0.068c7.023,0,25.907-1.178,38.622-13.022
				c7.97-7.424,12.041-17.399,12.109-29.645c0-0.009-0.001-0.018-0.001-0.027C512.173,329.861,512.175,329.853,512.175,329.845z
				 M467.682,294.901l4.173,1.587c7.422,2.821,19.127,9.606,22.382,24.823H96.019c15.181-19.379,23.621-43.377,23.621-68.267
				c0-14.718-2.953-29.324-8.58-42.814c15.647-4.641,33.451-14.397,53.243-29.153l169.582,106.483
				c8.627,5.427,18.398,8.218,28.339,8.218c4.002,0,8.03-0.461,12.023-1.365c13.935-3.183,25.796-11.614,33.382-23.706l0.486-0.774
				c4.452,2.009,9.556,4.335,15.414,7.029C438.063,283.645,453.124,289.371,467.682,294.901z M215.53,158.538
				c2.691,2.018,20.631,13.609,43.703,28.182l-9.091,9.091c-3.336,3.336-3.336,8.73,0,12.066c1.664,1.664,3.849,2.5,6.033,2.5
				c2.185,0,4.369-0.836,6.033-2.5l11.837-11.837c5.442,3.412,11.034,6.903,16.665,10.403l-6.434,6.434
				c-3.337,3.337-3.337,8.73,0,12.066c1.664,1.664,3.849,2.5,6.033,2.5c2.185,0,4.369-0.836,6.033-2.5l9.275-9.275
				c7.553,4.653,15.004,9.206,22.102,13.499l-9.31,9.31c-3.337,3.337-3.337,8.73,0,12.066c1.664,1.664,3.849,2.5,6.033,2.5
				c2.185,0,4.369-0.836,6.033-2.5l12.334-12.334c18.139,10.748,31.886,18.38,35.376,19.076c0.753,0.177,3.638,1.103,14.14,5.646
				c-5.192,7.539-12.9,12.79-21.874,14.842c-9.489,2.185-19.243,0.512-27.486-4.659L178.55,169.876
				c0.949-0.784,1.898-1.565,2.856-2.369C188.812,162.233,207.68,152.684,215.53,158.538z M18.256,240.02
				c1.439,2.675,4.263,4.492,7.518,4.492c4.719,0,8.533-3.814,8.533-8.533s-3.814-8.533-8.533-8.533
				c-2.251,0-4.29,0.874-5.813,2.294c3.441-17.101,10.21-35.771,22.026-55.397c1.314-1.826,4.147-4.361,4.77-4.659
				c0.034,0.026,3.755,2.406,6.383,18.731c0.077,0.486,0.196,0.973,0.367,1.451c0.186,0.543,3.954,11.016,15.378,17.806
				c-0.284,0.852-0.445,1.76-0.445,2.708c0,4.719,3.814,8.533,8.533,8.533c3.796,0,7.003-2.471,8.114-5.893
				c2.795,0.338,5.689,0.447,8.69,0.307c2.422,5.19,4.357,10.603,5.791,16.155c-1.489-1.267-3.416-2.035-5.528-2.035
				c-4.719,0-8.533,3.814-8.533,8.533s3.814,8.533,8.533,8.533c3.316,0,6.179-1.887,7.592-4.645c0.616,4.355,0.94,8.759,0.94,13.178
				c0,9.203-1.367,18.265-3.98,26.922c-1.318-0.833-2.876-1.322-4.553-1.322c-4.719,0-8.533,3.814-8.533,8.533
				c0,4.129,2.921,7.566,6.812,8.36c-2.301,4.506-4.967,8.835-7.981,12.938c-1.479-2.53-4.217-4.232-7.364-4.232
				c-4.719,0-8.533,3.814-8.533,8.533c0,3.546,2.154,6.581,5.228,7.87c-0.231,0.222-0.461,0.443-0.695,0.663H42.841H31.228
				c-2.545-4.959-6.717-14.229-9.891-26.851c1.293,0.789,2.808,1.251,4.437,1.251c4.719,0,8.533-3.814,8.533-8.533
				s-3.814-8.533-8.533-8.533c-2.873,0-5.405,1.419-6.951,3.59C16.877,270.11,16.185,255.851,18.256,240.02z M488.477,347.014
				c-10.086,9.446-28.459,8.474-29.193,8.431l-433.51-0.009v-17.058h468.096C492.795,341.783,491.012,344.642,488.477,347.014z"/>
			<path d="M213.508,253.045c-7.996,0-18.389,3.533-25.6,9.574c-7.211-6.042-17.604-9.574-25.6-9.574
				c-4.719,0-8.533,3.814-8.533,8.533s3.814,8.533,8.533,8.533c7.014,0,16.708,5.803,17.067,8.533v0.026
				c0.017,4.702,3.823,8.516,8.533,8.516c4.582,0,8.32-3.601,8.525-8.132c0.008-0.128,0.008-0.256,0.008-0.393
				c0.375-2.756,10.061-8.55,17.067-8.55c4.719,0,8.533-3.814,8.533-8.533S218.227,253.045,213.508,253.045z"/>
		</g>
	</g>
</g>
<g>
</g>
<g>
</g>
<g>
</g>
<g>
</g>
<g>
</g>
<g>
</g>
<g>
</g>
<g>
</g>
<g>
</g>
<g>
</g>
<g>
</g>
<g>
</g>
<g>
</g>
<g>
</g>
<g>
</g>
</svg>
